<mxfile host="app.diagrams.net" agent="Mozilla/5.0 (Windows NT 10.0; Win64; x64) AppleWebKit/537.36 (KHTML, like Gecko) Chrome/136.0.0.0 Safari/537.36" version="24.9.0">
  <diagram name="Page-1" id="NyeKZqtQmCvYDVDptirk">
    <mxGraphModel dx="2059" dy="1013" grid="1" gridSize="10" guides="1" tooltips="1" connect="1" arrows="1" fold="1" page="1" pageScale="1" pageWidth="850" pageHeight="1100" math="0" shadow="0">
      <root>
        <mxCell id="0" />
        <mxCell id="1" parent="0" />
        <mxCell id="poIoOsoM7RUQh1VGZ_li-12" style="edgeStyle=orthogonalEdgeStyle;rounded=0;orthogonalLoop=1;jettySize=auto;html=1;entryX=0;entryY=0.5;entryDx=0;entryDy=0;" edge="1" parent="1" source="poIoOsoM7RUQh1VGZ_li-1" target="poIoOsoM7RUQh1VGZ_li-2">
          <mxGeometry relative="1" as="geometry" />
        </mxCell>
        <mxCell id="poIoOsoM7RUQh1VGZ_li-13" style="edgeStyle=orthogonalEdgeStyle;rounded=0;orthogonalLoop=1;jettySize=auto;html=1;exitX=1;exitY=0;exitDx=0;exitDy=0;entryX=0;entryY=0.5;entryDx=0;entryDy=0;" edge="1" parent="1" source="poIoOsoM7RUQh1VGZ_li-1" target="poIoOsoM7RUQh1VGZ_li-4">
          <mxGeometry relative="1" as="geometry">
            <Array as="points">
              <mxPoint x="290" y="190" />
              <mxPoint x="410" y="190" />
            </Array>
          </mxGeometry>
        </mxCell>
        <mxCell id="poIoOsoM7RUQh1VGZ_li-14" style="edgeStyle=orthogonalEdgeStyle;rounded=0;orthogonalLoop=1;jettySize=auto;html=1;exitX=0.75;exitY=0;exitDx=0;exitDy=0;entryX=0;entryY=0.5;entryDx=0;entryDy=0;" edge="1" parent="1" source="poIoOsoM7RUQh1VGZ_li-1" target="poIoOsoM7RUQh1VGZ_li-3">
          <mxGeometry relative="1" as="geometry" />
        </mxCell>
        <mxCell id="poIoOsoM7RUQh1VGZ_li-15" style="edgeStyle=orthogonalEdgeStyle;rounded=0;orthogonalLoop=1;jettySize=auto;html=1;exitX=0.75;exitY=1;exitDx=0;exitDy=0;entryX=0;entryY=0.5;entryDx=0;entryDy=0;" edge="1" parent="1" source="poIoOsoM7RUQh1VGZ_li-1" target="poIoOsoM7RUQh1VGZ_li-9">
          <mxGeometry relative="1" as="geometry" />
        </mxCell>
        <mxCell id="poIoOsoM7RUQh1VGZ_li-16" style="edgeStyle=orthogonalEdgeStyle;rounded=0;orthogonalLoop=1;jettySize=auto;html=1;exitX=1;exitY=1;exitDx=0;exitDy=0;entryX=0;entryY=0.5;entryDx=0;entryDy=0;" edge="1" parent="1" source="poIoOsoM7RUQh1VGZ_li-1" target="poIoOsoM7RUQh1VGZ_li-5">
          <mxGeometry relative="1" as="geometry" />
        </mxCell>
        <mxCell id="poIoOsoM7RUQh1VGZ_li-33" style="edgeStyle=orthogonalEdgeStyle;rounded=0;orthogonalLoop=1;jettySize=auto;html=1;exitX=0.25;exitY=1;exitDx=0;exitDy=0;entryX=0.5;entryY=1;entryDx=0;entryDy=0;" edge="1" parent="1" source="poIoOsoM7RUQh1VGZ_li-1" target="poIoOsoM7RUQh1VGZ_li-6">
          <mxGeometry relative="1" as="geometry" />
        </mxCell>
        <mxCell id="poIoOsoM7RUQh1VGZ_li-44" style="edgeStyle=orthogonalEdgeStyle;rounded=0;orthogonalLoop=1;jettySize=auto;html=1;exitX=1;exitY=0.75;exitDx=0;exitDy=0;entryX=0;entryY=0.75;entryDx=0;entryDy=0;" edge="1" parent="1" source="poIoOsoM7RUQh1VGZ_li-1" target="poIoOsoM7RUQh1VGZ_li-43">
          <mxGeometry relative="1" as="geometry" />
        </mxCell>
        <mxCell id="poIoOsoM7RUQh1VGZ_li-1" value="Gateway service" style="rounded=1;whiteSpace=wrap;html=1;" vertex="1" parent="1">
          <mxGeometry x="170" y="280" width="120" height="60" as="geometry" />
        </mxCell>
        <mxCell id="poIoOsoM7RUQh1VGZ_li-2" value="Auth Service" style="rounded=1;whiteSpace=wrap;html=1;" vertex="1" parent="1">
          <mxGeometry x="365" y="280" width="120" height="60" as="geometry" />
        </mxCell>
        <mxCell id="poIoOsoM7RUQh1VGZ_li-48" style="edgeStyle=orthogonalEdgeStyle;rounded=0;orthogonalLoop=1;jettySize=auto;html=1;exitX=0.5;exitY=1;exitDx=0;exitDy=0;entryX=0.5;entryY=1;entryDx=0;entryDy=0;" edge="1" parent="1" source="poIoOsoM7RUQh1VGZ_li-3" target="poIoOsoM7RUQh1VGZ_li-46">
          <mxGeometry relative="1" as="geometry" />
        </mxCell>
        <mxCell id="poIoOsoM7RUQh1VGZ_li-51" style="edgeStyle=orthogonalEdgeStyle;rounded=0;orthogonalLoop=1;jettySize=auto;html=1;exitX=0.25;exitY=1;exitDx=0;exitDy=0;entryX=1;entryY=0.75;entryDx=0;entryDy=0;" edge="1" parent="1" source="poIoOsoM7RUQh1VGZ_li-3" target="poIoOsoM7RUQh1VGZ_li-49">
          <mxGeometry relative="1" as="geometry" />
        </mxCell>
        <mxCell id="poIoOsoM7RUQh1VGZ_li-3" value="Progress Service" style="rounded=1;whiteSpace=wrap;html=1;" vertex="1" parent="1">
          <mxGeometry x="410" y="10" width="120" height="60" as="geometry" />
        </mxCell>
        <mxCell id="poIoOsoM7RUQh1VGZ_li-25" style="edgeStyle=orthogonalEdgeStyle;rounded=0;orthogonalLoop=1;jettySize=auto;html=1;exitX=1;exitY=0.5;exitDx=0;exitDy=0;entryX=0.25;entryY=0;entryDx=0;entryDy=0;" edge="1" parent="1" source="poIoOsoM7RUQh1VGZ_li-4" target="poIoOsoM7RUQh1VGZ_li-6">
          <mxGeometry relative="1" as="geometry" />
        </mxCell>
        <mxCell id="poIoOsoM7RUQh1VGZ_li-50" value="" style="edgeStyle=orthogonalEdgeStyle;rounded=0;orthogonalLoop=1;jettySize=auto;html=1;" edge="1" parent="1" source="poIoOsoM7RUQh1VGZ_li-4" target="poIoOsoM7RUQh1VGZ_li-49">
          <mxGeometry relative="1" as="geometry" />
        </mxCell>
        <mxCell id="poIoOsoM7RUQh1VGZ_li-4" value="User Service" style="rounded=1;whiteSpace=wrap;html=1;" vertex="1" parent="1">
          <mxGeometry x="410" y="150" width="120" height="60" as="geometry" />
        </mxCell>
        <mxCell id="poIoOsoM7RUQh1VGZ_li-23" style="edgeStyle=orthogonalEdgeStyle;rounded=0;orthogonalLoop=1;jettySize=auto;html=1;exitX=1;exitY=0.75;exitDx=0;exitDy=0;entryX=0.5;entryY=0;entryDx=0;entryDy=0;" edge="1" parent="1" source="poIoOsoM7RUQh1VGZ_li-5" target="poIoOsoM7RUQh1VGZ_li-6">
          <mxGeometry relative="1" as="geometry" />
        </mxCell>
        <mxCell id="poIoOsoM7RUQh1VGZ_li-5" value="Lesson Service" style="rounded=1;whiteSpace=wrap;html=1;" vertex="1" parent="1">
          <mxGeometry x="420" y="470" width="120" height="60" as="geometry" />
        </mxCell>
        <mxCell id="poIoOsoM7RUQh1VGZ_li-6" value="Config Server" style="rounded=1;whiteSpace=wrap;html=1;" vertex="1" parent="1">
          <mxGeometry x="580" y="600" width="120" height="60" as="geometry" />
        </mxCell>
        <mxCell id="poIoOsoM7RUQh1VGZ_li-41" style="edgeStyle=orthogonalEdgeStyle;rounded=0;orthogonalLoop=1;jettySize=auto;html=1;exitX=0.25;exitY=1;exitDx=0;exitDy=0;" edge="1" parent="1" source="poIoOsoM7RUQh1VGZ_li-9" target="poIoOsoM7RUQh1VGZ_li-42">
          <mxGeometry relative="1" as="geometry">
            <mxPoint x="410" y="800" as="targetPoint" />
          </mxGeometry>
        </mxCell>
        <mxCell id="poIoOsoM7RUQh1VGZ_li-9" value="Notification Service" style="rounded=1;whiteSpace=wrap;html=1;" vertex="1" parent="1">
          <mxGeometry x="410" y="560" width="120" height="60" as="geometry" />
        </mxCell>
        <mxCell id="poIoOsoM7RUQh1VGZ_li-11" value="Service Discovery" style="rounded=1;whiteSpace=wrap;html=1;" vertex="1" parent="1">
          <mxGeometry x="40" y="120" width="120" height="60" as="geometry" />
        </mxCell>
        <mxCell id="poIoOsoM7RUQh1VGZ_li-24" style="edgeStyle=orthogonalEdgeStyle;rounded=0;orthogonalLoop=1;jettySize=auto;html=1;exitX=0.5;exitY=1;exitDx=0;exitDy=0;entryX=0;entryY=0.75;entryDx=0;entryDy=0;" edge="1" parent="1" source="poIoOsoM7RUQh1VGZ_li-9" target="poIoOsoM7RUQh1VGZ_li-6">
          <mxGeometry relative="1" as="geometry" />
        </mxCell>
        <mxCell id="poIoOsoM7RUQh1VGZ_li-27" style="edgeStyle=orthogonalEdgeStyle;rounded=0;orthogonalLoop=1;jettySize=auto;html=1;entryX=0.383;entryY=-0.008;entryDx=0;entryDy=0;entryPerimeter=0;" edge="1" parent="1" source="poIoOsoM7RUQh1VGZ_li-3" target="poIoOsoM7RUQh1VGZ_li-6">
          <mxGeometry relative="1" as="geometry" />
        </mxCell>
        <mxCell id="poIoOsoM7RUQh1VGZ_li-29" style="edgeStyle=orthogonalEdgeStyle;rounded=0;orthogonalLoop=1;jettySize=auto;html=1;exitX=1;exitY=0.5;exitDx=0;exitDy=0;entryX=0;entryY=0.5;entryDx=0;entryDy=0;" edge="1" parent="1" source="poIoOsoM7RUQh1VGZ_li-28" target="poIoOsoM7RUQh1VGZ_li-1">
          <mxGeometry relative="1" as="geometry" />
        </mxCell>
        <mxCell id="poIoOsoM7RUQh1VGZ_li-28" value="Clients (Angular App)" style="rounded=0;whiteSpace=wrap;html=1;" vertex="1" parent="1">
          <mxGeometry x="-100" y="280" width="120" height="60" as="geometry" />
        </mxCell>
        <mxCell id="poIoOsoM7RUQh1VGZ_li-31" value="Postgre" style="shape=cylinder3;whiteSpace=wrap;html=1;boundedLbl=1;backgroundOutline=1;size=15;" vertex="1" parent="1">
          <mxGeometry x="760" y="150" width="60" height="80" as="geometry" />
        </mxCell>
        <mxCell id="poIoOsoM7RUQh1VGZ_li-32" style="edgeStyle=orthogonalEdgeStyle;rounded=0;orthogonalLoop=1;jettySize=auto;html=1;exitX=1;exitY=0.5;exitDx=0;exitDy=0;entryX=0;entryY=0;entryDx=0;entryDy=52.5;entryPerimeter=0;" edge="1" parent="1" source="poIoOsoM7RUQh1VGZ_li-3" target="poIoOsoM7RUQh1VGZ_li-31">
          <mxGeometry relative="1" as="geometry" />
        </mxCell>
        <mxCell id="poIoOsoM7RUQh1VGZ_li-34" style="edgeStyle=orthogonalEdgeStyle;rounded=0;orthogonalLoop=1;jettySize=auto;html=1;exitX=1;exitY=0.75;exitDx=0;exitDy=0;entryX=0.5;entryY=1;entryDx=0;entryDy=0;entryPerimeter=0;" edge="1" parent="1" source="poIoOsoM7RUQh1VGZ_li-4" target="poIoOsoM7RUQh1VGZ_li-31">
          <mxGeometry relative="1" as="geometry">
            <Array as="points">
              <mxPoint x="530" y="250" />
              <mxPoint x="790" y="250" />
            </Array>
          </mxGeometry>
        </mxCell>
        <mxCell id="poIoOsoM7RUQh1VGZ_li-35" style="edgeStyle=orthogonalEdgeStyle;rounded=0;orthogonalLoop=1;jettySize=auto;html=1;exitX=1;exitY=0.5;exitDx=0;exitDy=0;entryX=0.855;entryY=1;entryDx=0;entryDy=-4.35;entryPerimeter=0;" edge="1" parent="1" source="poIoOsoM7RUQh1VGZ_li-2" target="poIoOsoM7RUQh1VGZ_li-31">
          <mxGeometry relative="1" as="geometry" />
        </mxCell>
        <mxCell id="poIoOsoM7RUQh1VGZ_li-36" value="MongoDb" style="shape=cylinder3;whiteSpace=wrap;html=1;boundedLbl=1;backgroundOutline=1;size=15;" vertex="1" parent="1">
          <mxGeometry x="780" y="440" width="60" height="80" as="geometry" />
        </mxCell>
        <mxCell id="poIoOsoM7RUQh1VGZ_li-38" style="edgeStyle=orthogonalEdgeStyle;rounded=0;orthogonalLoop=1;jettySize=auto;html=1;entryX=0;entryY=0;entryDx=0;entryDy=52.5;entryPerimeter=0;" edge="1" parent="1" target="poIoOsoM7RUQh1VGZ_li-36">
          <mxGeometry relative="1" as="geometry">
            <mxPoint x="540" y="500" as="sourcePoint" />
            <Array as="points">
              <mxPoint x="540" y="490" />
              <mxPoint x="760" y="490" />
              <mxPoint x="760" y="492" />
            </Array>
          </mxGeometry>
        </mxCell>
        <mxCell id="poIoOsoM7RUQh1VGZ_li-42" value="RabbitMQ" style="rounded=1;whiteSpace=wrap;html=1;" vertex="1" parent="1">
          <mxGeometry x="350" y="770" width="120" height="60" as="geometry" />
        </mxCell>
        <mxCell id="poIoOsoM7RUQh1VGZ_li-43" value="Quiz Service" style="rounded=1;whiteSpace=wrap;html=1;" vertex="1" parent="1">
          <mxGeometry x="380" y="390" width="120" height="60" as="geometry" />
        </mxCell>
        <mxCell id="poIoOsoM7RUQh1VGZ_li-45" style="edgeStyle=orthogonalEdgeStyle;rounded=0;orthogonalLoop=1;jettySize=auto;html=1;exitX=1;exitY=0.5;exitDx=0;exitDy=0;entryX=0;entryY=0.5;entryDx=0;entryDy=0;entryPerimeter=0;" edge="1" parent="1" source="poIoOsoM7RUQh1VGZ_li-43" target="poIoOsoM7RUQh1VGZ_li-36">
          <mxGeometry relative="1" as="geometry" />
        </mxCell>
        <mxCell id="poIoOsoM7RUQh1VGZ_li-46" value="Kafka" style="rounded=1;whiteSpace=wrap;html=1;" vertex="1" parent="1">
          <mxGeometry x="700" y="30" width="120" height="60" as="geometry" />
        </mxCell>
        <mxCell id="poIoOsoM7RUQh1VGZ_li-49" value="Redis" style="whiteSpace=wrap;html=1;rounded=1;" vertex="1" parent="1">
          <mxGeometry x="270" y="70" width="120" height="60" as="geometry" />
        </mxCell>
      </root>
    </mxGraphModel>
  </diagram>
</mxfile>
